<svg width="132" height="30" viewBox="0 0 132 30" fill="none" xmlns="http://www.w3.org/2000/svg">
<path d="M0 10C0 4.47715 4.47715 0 10 0H121.111C126.634 0 131.111 4.47715 131.111 10V20C131.111 25.5228 126.634 30 121.111 30H10C4.47715 30 0 25.5228 0 20V10Z" fill="url(#paint0_linear_20_16)"/>
<path d="M13.5234 18.3516H9.11719L8.19531 21H6.14062L10.4375 9.625H12.2109L16.5156 21H14.4531L13.5234 18.3516ZM9.67188 16.7578H12.9688L11.3203 12.0391L9.67188 16.7578ZM19.0156 12.5469L19.0703 13.5234C19.6953 12.7682 20.5156 12.3906 21.5312 12.3906C23.2917 12.3906 24.1875 13.3984 24.2188 15.4141V21H22.3203V15.5234C22.3203 14.987 22.2031 14.5911 21.9688 14.3359C21.7396 14.0755 21.362 13.9453 20.8359 13.9453C20.0703 13.9453 19.5 14.2917 19.125 14.9844V21H17.2266V12.5469H19.0156ZM25.8047 16.6953C25.8047 15.8672 25.9688 15.1224 26.2969 14.4609C26.625 13.7943 27.0859 13.2839 27.6797 12.9297C28.2734 12.5703 28.9557 12.3906 29.7266 12.3906C30.8672 12.3906 31.7917 12.7578 32.5 13.4922C33.2135 14.2266 33.599 15.2005 33.6562 16.4141L33.6641 16.8594C33.6641 17.6927 33.5026 18.4375 33.1797 19.0938C32.862 19.75 32.4036 20.2578 31.8047 20.6172C31.2109 20.9766 30.5234 21.1562 29.7422 21.1562C28.5495 21.1562 27.5938 20.7604 26.875 19.9688C26.1615 19.1719 25.8047 18.112 25.8047 16.7891V16.6953ZM27.7031 16.8594C27.7031 17.7292 27.8828 18.4115 28.2422 18.9062C28.6016 19.3958 29.1016 19.6406 29.7422 19.6406C30.3828 19.6406 30.8802 19.3906 31.2344 18.8906C31.5938 18.3906 31.7734 17.6589 31.7734 16.6953C31.7734 15.8411 31.5885 15.1641 31.2188 14.6641C30.8542 14.1641 30.3568 13.9141 29.7266 13.9141C29.1068 13.9141 28.6146 14.1615 28.25 14.6562C27.8854 15.1458 27.7031 15.8802 27.7031 16.8594ZM37.0547 12.5469L37.1094 13.4297C37.7031 12.737 38.5156 12.3906 39.5469 12.3906C40.6771 12.3906 41.4505 12.8229 41.8672 13.6875C42.4818 12.8229 43.3464 12.3906 44.4609 12.3906C45.3932 12.3906 46.0859 12.6484 46.5391 13.1641C46.9974 13.6797 47.2318 14.4401 47.2422 15.4453V21H45.3438V15.5C45.3438 14.9635 45.2266 14.5703 44.9922 14.3203C44.7578 14.0703 44.3698 13.9453 43.8281 13.9453C43.3958 13.9453 43.0417 14.0625 42.7656 14.2969C42.4948 14.526 42.3047 14.8281 42.1953 15.2031L42.2031 21H40.3047V15.4375C40.2786 14.4427 39.7708 13.9453 38.7812 13.9453C38.0208 13.9453 37.4818 14.2552 37.1641 14.875V21H35.2656V12.5469H37.0547ZM54.2422 21C54.1589 20.8385 54.0859 20.5755 54.0234 20.2109C53.4193 20.8411 52.6797 21.1562 51.8047 21.1562C50.9557 21.1562 50.263 20.9141 49.7266 20.4297C49.1901 19.9453 48.9219 19.3464 48.9219 18.6328C48.9219 17.7318 49.2552 17.0417 49.9219 16.5625C50.5938 16.0781 51.5521 15.8359 52.7969 15.8359H53.9609V15.2812C53.9609 14.8438 53.8385 14.4948 53.5938 14.2344C53.349 13.9688 52.9766 13.8359 52.4766 13.8359C52.0443 13.8359 51.6901 13.9453 51.4141 14.1641C51.138 14.3776 51 14.651 51 14.9844H49.1016C49.1016 14.5208 49.2552 14.0885 49.5625 13.6875C49.8698 13.2812 50.2865 12.9635 50.8125 12.7344C51.3438 12.5052 51.9349 12.3906 52.5859 12.3906C53.5755 12.3906 54.3646 12.6406 54.9531 13.1406C55.5417 13.6354 55.8438 14.3333 55.8594 15.2344V19.0469C55.8594 19.8073 55.9661 20.4141 56.1797 20.8672V21H54.2422ZM52.1562 19.6328C52.5312 19.6328 52.8828 19.5417 53.2109 19.3594C53.5443 19.1771 53.7943 18.9323 53.9609 18.625V17.0312H52.9375C52.2344 17.0312 51.7057 17.1536 51.3516 17.3984C50.9974 17.6432 50.8203 17.9896 50.8203 18.4375C50.8203 18.8021 50.9401 19.0938 51.1797 19.3125C51.4245 19.526 51.75 19.6328 52.1562 19.6328ZM59.8672 21H57.9688V9H59.8672V21ZM64.8984 18.2812L66.6172 12.5469H68.6406L65.2812 22.2812C64.7656 23.7031 63.8906 24.4141 62.6562 24.4141C62.3802 24.4141 62.0755 24.3672 61.7422 24.2734V22.8047L62.1016 22.8281C62.5807 22.8281 62.9401 22.7396 63.1797 22.5625C63.4245 22.3906 63.6172 22.099 63.7578 21.6875L64.0312 20.9609L61.0625 12.5469H63.1094L64.8984 18.2812ZM69.9219 21V9.625H73.8203C75.1068 9.625 76.0859 9.88281 76.7578 10.3984C77.4297 10.9141 77.7656 11.6823 77.7656 12.7031C77.7656 13.224 77.625 13.6927 77.3438 14.1094C77.0625 14.526 76.651 14.849 76.1094 15.0781C76.724 15.2448 77.1979 15.5599 77.5312 16.0234C77.8698 16.4818 78.0391 17.0339 78.0391 17.6797C78.0391 18.7474 77.6953 19.5677 77.0078 20.1406C76.3255 20.7135 75.3464 21 74.0703 21H69.9219ZM71.8984 15.8672V19.4219H74.0938C74.7135 19.4219 75.1979 19.2682 75.5469 18.9609C75.8958 18.6536 76.0703 18.2266 76.0703 17.6797C76.0703 16.4974 75.4661 15.8932 74.2578 15.8672H71.8984ZM71.8984 14.4141H73.8359C74.4505 14.4141 74.9297 14.276 75.2734 14C75.6224 13.7188 75.7969 13.3229 75.7969 12.8125C75.7969 12.25 75.6354 11.8438 75.3125 11.5938C74.9948 11.3438 74.4974 11.2188 73.8203 11.2188H71.8984V14.4141ZM82.7891 18.2812L84.5078 12.5469H86.5312L83.1719 22.2812C82.6562 23.7031 81.7812 24.4141 80.5469 24.4141C80.2708 24.4141 79.9661 24.3672 79.6328 24.2734V22.8047L79.9922 22.8281C80.4714 22.8281 80.8307 22.7396 81.0703 22.5625C81.3151 22.3906 81.5078 22.099 81.6484 21.6875L81.9219 20.9609L78.9531 12.5469H81L82.7891 18.2812ZM96.4922 17.2969C96.3776 18.5104 95.9297 19.4583 95.1484 20.1406C94.3672 20.8177 93.3281 21.1562 92.0312 21.1562C91.125 21.1562 90.3255 20.9427 89.6328 20.5156C88.9453 20.0833 88.4141 19.4714 88.0391 18.6797C87.6641 17.888 87.4688 16.9688 87.4531 15.9219V14.8594C87.4531 13.7865 87.6432 12.8411 88.0234 12.0234C88.4036 11.2057 88.9479 10.5755 89.6562 10.1328C90.3698 9.6901 91.1927 9.46875 92.125 9.46875C93.3802 9.46875 94.3906 9.8099 95.1562 10.4922C95.9219 11.1745 96.3672 12.138 96.4922 13.3828H94.5234C94.4297 12.5651 94.1901 11.9766 93.8047 11.6172C93.4245 11.2526 92.8646 11.0703 92.125 11.0703C91.2656 11.0703 90.6042 11.3854 90.1406 12.0156C89.6823 12.6406 89.4479 13.5599 89.4375 14.7734V15.7812C89.4375 17.0104 89.6562 17.9479 90.0938 18.5938C90.5365 19.2396 91.1823 19.5625 92.0312 19.5625C92.8073 19.5625 93.3906 19.388 93.7812 19.0391C94.1719 18.6901 94.4193 18.1094 94.5234 17.2969H96.4922ZM100.102 21H98.2031V9H100.102V21ZM104.195 21H102.297V12.5469H104.195V21ZM102.18 10.3516C102.18 10.0599 102.271 9.81771 102.453 9.625C102.641 9.43229 102.906 9.33594 103.25 9.33594C103.594 9.33594 103.859 9.43229 104.047 9.625C104.234 9.81771 104.328 10.0599 104.328 10.3516C104.328 10.638 104.234 10.8776 104.047 11.0703C103.859 11.2578 103.594 11.3516 103.25 11.3516C102.906 11.3516 102.641 11.2578 102.453 11.0703C102.271 10.8776 102.18 10.638 102.18 10.3516ZM109.742 19.6406C110.216 19.6406 110.609 19.5026 110.922 19.2266C111.234 18.9505 111.401 18.6094 111.422 18.2031H113.211C113.19 18.7292 113.026 19.2214 112.719 19.6797C112.411 20.1328 111.995 20.4922 111.469 20.7578C110.943 21.0234 110.375 21.1562 109.766 21.1562C108.583 21.1562 107.646 20.7734 106.953 20.0078C106.26 19.2422 105.914 18.1849 105.914 16.8359V16.6406C105.914 15.3542 106.258 14.3255 106.945 13.5547C107.633 12.7786 108.57 12.3906 109.758 12.3906C110.763 12.3906 111.581 12.6849 112.211 13.2734C112.846 13.8568 113.18 14.625 113.211 15.5781H111.422C111.401 15.0938 111.234 14.6953 110.922 14.3828C110.615 14.0703 110.221 13.9141 109.742 13.9141C109.128 13.9141 108.654 14.138 108.32 14.5859C107.987 15.0286 107.818 15.7031 107.812 16.6094V16.9141C107.812 17.8307 107.977 18.5156 108.305 18.9688C108.638 19.4167 109.117 19.6406 109.742 19.6406Z" fill="white"/>
<line x1="116.056" y1="13.2778" x2="116.056" y2="6.50005" stroke="white" stroke-linecap="round"/>
<line x1="116.056" y1="24.3889" x2="116.056" y2="17.6111" stroke="white" stroke-linecap="round"/>
<line x1="118.374" y1="17.1111" x2="123.167" y2="21.9037" stroke="white" stroke-linecap="round"/>
<line x1="118.778" y1="14.1259" x2="123.57" y2="9.33329" stroke="white" stroke-linecap="round"/>
<defs>
<linearGradient id="paint0_linear_20_16" x1="151.111" y1="37.2222" x2="-20" y2="-7.22223" gradientUnits="userSpaceOnUse">
<stop stop-color="#3498DB"/>
<stop offset="1" stop-color="#1F3BB3"/>
</linearGradient>
</defs>
</svg>
